<svg width="216" height="36" viewBox="0 0 216 36" fill="none" xmlns="http://www.w3.org/2000/svg">
<path d="M12.429 35.564C10.6117 35.564 8.73167 35.2663 6.789 34.671C5.15967 35.0783 3.734 35.282 2.512 35.282C1.32133 35.282 0.506667 35.2507 0.0680002 35.188C0.287333 33.3393 1.22733 28.655 2.888 21.135C4.58 13.5837 5.426 9.30667 5.426 8.304C5.426 7.27 5.20667 6.377 4.768 5.625C4.36067 4.873 3.95333 4.32466 3.546 3.98L2.888 3.463L3.029 2.758C3.84367 2.53867 5.50433 2.30367 8.011 2.053C10.549 1.771 12.758 1.63 14.638 1.63C18.9933 1.63 22.2833 2.60133 24.508 4.544C26.764 6.45533 27.892 9.573 27.892 13.897C27.892 17.4377 27.2967 20.8373 26.106 24.096C24.9467 27.3233 23.1607 30.0493 20.748 32.274C18.3353 34.4673 15.5623 35.564 12.429 35.564ZM15.766 4.591C14.9513 4.591 14.027 4.685 12.993 4.873C12.6797 8.19433 11.7867 13.051 10.314 19.443C8.87267 25.8037 8.02667 29.8613 7.776 31.616C8.528 31.992 9.562 32.18 10.878 32.18C12.194 32.18 13.4317 31.663 14.591 30.629C15.7817 29.5637 16.7373 28.2477 17.458 26.681C18.1787 25.1143 18.8053 23.3597 19.338 21.417C20.2467 17.939 20.701 14.7743 20.701 11.923C20.701 9.07167 20.325 7.14467 19.573 6.142C18.821 5.108 17.552 4.591 15.766 4.591ZM30.4594 35.141H30.1304C30.0677 34.8903 30.0364 34.3263 30.0364 33.449C30.0364 32.5403 30.4594 30.1277 31.3054 26.211C32.1514 22.2943 32.5744 20.054 32.5744 19.49C32.5744 18.5187 32.1357 17.4533 31.2584 16.294L30.8354 15.73L30.8824 15.119C32.5744 14.649 35.2847 14.414 39.0134 14.414C39.3894 15.2287 39.5774 16.3723 39.5774 17.845C39.922 17.281 40.6427 16.529 41.7394 15.589C42.836 14.649 43.964 14.179 45.1234 14.179C46.8154 14.179 47.6614 15.6517 47.6614 18.597C47.5047 18.785 47.2854 19.0357 47.0034 19.349C46.7527 19.631 46.22 20.0383 45.4054 20.571C44.622 21.1037 43.8544 21.4327 43.1024 21.558C43.071 21.558 42.8047 21.135 42.3034 20.289C41.802 19.443 41.426 19.02 41.1754 19.02C40.392 19.302 39.7027 19.772 39.1074 20.43C37.666 26.916 36.9454 31.1147 36.9454 33.026C36.9454 33.7153 36.961 34.201 36.9924 34.483C35.8957 34.9217 33.718 35.141 30.4594 35.141ZM46.4515 26.869C46.4515 22.9523 47.6265 19.866 49.9765 17.61C52.3578 15.3227 55.0525 14.179 58.0605 14.179C59.9092 14.179 61.4288 14.6333 62.6195 15.542C63.8102 16.4507 64.4055 17.6727 64.4055 19.208C64.4055 20.712 64.0138 21.981 63.2305 23.015C62.4785 24.049 61.5542 24.848 60.4575 25.412C58.2328 26.5087 56.1962 27.198 54.3475 27.48L53.2195 27.621C53.4388 30.5663 54.6452 32.039 56.8385 32.039C57.5905 32.039 58.3895 31.851 59.2355 31.475C60.0815 31.099 60.7395 30.723 61.2095 30.347L61.9145 29.783L63.0425 31.287C62.7918 31.6317 62.2905 32.086 61.5385 32.65C60.7865 33.214 60.0815 33.684 59.4235 34.06C57.6062 35.0627 55.6165 35.564 53.4545 35.564C51.2925 35.564 49.5848 34.7963 48.3315 33.261C47.0782 31.7257 46.4515 29.595 46.4515 26.869ZM53.1725 25.318C54.7705 25.036 56.0395 24.3623 56.9795 23.297C57.9195 22.2317 58.3895 20.853 58.3895 19.161C58.3895 17.469 57.8882 16.623 56.8855 16.623C55.6948 16.623 54.7705 17.6413 54.1125 19.678C53.4858 21.6833 53.1725 23.5633 53.1725 25.318ZM79.418 15.542C79.4806 15.4793 79.653 15.072 79.935 14.32C81.4076 14.32 83.3816 14.7587 85.857 15.636C85.0736 18.2367 84.447 20.9627 83.977 23.814C83.507 26.634 83.272 28.655 83.272 29.877C83.272 31.0677 83.3973 31.663 83.648 31.663C83.836 31.663 84.5253 31.3653 85.716 30.77L86.28 30.488L87.126 32.133C86.844 32.3837 86.468 32.697 85.998 33.073C85.5593 33.449 84.7133 33.966 83.46 34.624C82.2066 35.2507 81.0786 35.564 80.076 35.564C78.1333 35.564 77.0053 34.6867 76.692 32.932C74.6866 34.6867 72.8693 35.564 71.24 35.564C69.642 35.564 68.279 34.9373 67.151 33.684C66.0543 32.4307 65.506 30.4567 65.506 27.762C65.506 23.5633 66.3676 20.2577 68.091 17.845C69.8143 15.401 71.898 14.179 74.342 14.179C76.0966 14.179 77.7886 14.6333 79.418 15.542ZM74.06 31.569C74.812 31.569 75.658 31.2713 76.598 30.676C76.8173 26.258 77.5536 21.887 78.807 17.563C77.867 17.1557 77.068 16.952 76.41 16.952C75.282 16.952 74.3106 18.0643 73.496 20.289C72.7126 22.4823 72.321 24.9107 72.321 27.574C72.321 30.2373 72.9006 31.569 74.06 31.569ZM89.263 35.141H88.37C88.37 33.6683 88.8087 30.8483 89.686 26.681C90.5947 22.5137 91.049 20.148 91.049 19.584C91.049 18.55 90.6103 17.4533 89.733 16.294L89.31 15.73L89.357 15.119C91.049 14.649 93.7593 14.414 97.488 14.414C97.9267 15.0093 98.146 15.9807 98.146 17.328C100.966 15.2287 103.206 14.179 104.867 14.179C106.966 14.179 108.204 15.26 108.58 17.422C109.426 16.7327 110.523 16.0277 111.87 15.307C113.249 14.555 114.471 14.179 115.536 14.179C116.633 14.179 117.541 14.5393 118.262 15.26C118.983 15.9493 119.343 16.9207 119.343 18.174C119.343 19.4273 118.998 21.4953 118.309 24.378C117.62 27.2607 117.275 29.2033 117.275 30.206C117.275 31.1773 117.416 31.663 117.698 31.663C117.886 31.663 118.528 31.3653 119.625 30.77L120.142 30.488L120.988 32.133C120.173 32.9477 119.061 33.731 117.651 34.483C116.272 35.2037 115.05 35.564 113.985 35.564C111.635 35.564 110.46 34.2323 110.46 31.569C110.46 30.5977 110.789 28.655 111.447 25.741C112.136 22.7957 112.481 20.8843 112.481 20.007C112.481 19.0983 112.215 18.644 111.682 18.644C110.773 18.644 109.739 18.9887 108.58 19.678C108.517 20.3047 108.079 22.4353 107.264 26.07C106.481 29.7047 106.089 32.5247 106.089 34.53C105.18 34.9373 103.05 35.141 99.697 35.141C99.6343 34.7963 99.603 33.966 99.603 32.65C99.603 31.334 99.9633 29.0937 100.684 25.929C101.436 22.7643 101.812 20.759 101.812 19.913C101.812 19.067 101.514 18.644 100.919 18.644C99.979 18.644 98.945 19.02 97.817 19.772C97.7543 20.054 97.441 21.4327 96.877 23.908C95.749 28.8587 95.185 32.3837 95.185 34.483C94.0883 34.9217 92.1143 35.141 89.263 35.141ZM138.257 29.219C138.257 29.219 138.366 24.2527 138.586 14.32C138.586 10.372 138.351 7.834 137.881 6.706L135.578 3.134L135.719 2.429C137.943 1.92766 141.139 1.677 145.307 1.677C145.902 2.58567 146.2 4.27767 146.2 6.753C146.2 9.197 146.043 12.5027 145.73 16.67C145.416 20.806 145.26 24.002 145.26 26.258C145.26 28.514 145.792 29.642 146.858 29.642C147.484 29.642 148.393 29.1407 149.584 28.138C150.774 27.104 151.793 25.9917 152.639 24.801C153.328 17.7197 153.673 12.9413 153.673 10.466C153.673 7.99067 153.328 5.68767 152.639 3.557C154.299 2.711 157.025 2.06866 160.817 1.63C161.161 2.758 161.334 4.356 161.334 6.424C161.334 8.46066 161.005 12.017 160.347 17.093C159.72 22.169 159.407 25.5373 159.407 27.198C159.407 28.8273 159.877 29.642 160.817 29.642C161.788 29.642 163.088 28.7333 164.718 26.916C166.347 25.0987 167.835 22.8427 169.183 20.148C170.561 17.422 171.329 14.9623 171.486 12.769L166.504 9.855C166.723 7.975 167.162 6.36133 167.82 5.014C168.509 3.63533 169.136 2.72666 169.7 2.288L170.546 1.63C172.457 1.63 173.914 2.13133 174.917 3.134C175.951 4.10533 176.468 5.26467 176.468 6.612C176.468 9.15 175.825 12.111 174.541 15.495C173.287 18.879 171.721 22.0437 169.841 24.989C167.992 27.9343 165.877 30.441 163.496 32.509C161.114 34.5457 158.921 35.564 156.916 35.564C155.725 35.564 154.66 35 153.72 33.872C152.811 32.744 152.341 31.3027 152.31 29.548C150.931 31.428 149.474 32.9007 147.939 33.966C146.403 35.0313 144.931 35.564 143.521 35.564C142.111 35.564 140.873 34.9843 139.808 33.825C138.774 32.6343 138.257 31.099 138.257 29.219ZM175.839 26.869C175.839 22.9523 177.014 19.866 179.364 17.61C181.746 15.3227 184.44 14.179 187.448 14.179C189.297 14.179 190.817 14.6333 192.007 15.542C193.198 16.4507 193.793 17.6727 193.793 19.208C193.793 20.712 193.402 21.981 192.618 23.015C191.866 24.049 190.942 24.848 189.845 25.412C187.621 26.5087 185.584 27.198 183.735 27.48L182.607 27.621C182.827 30.5663 184.033 32.039 186.226 32.039C186.978 32.039 187.777 31.851 188.623 31.475C189.469 31.099 190.127 30.723 190.597 30.347L191.302 29.783L192.43 31.287C192.18 31.6317 191.678 32.086 190.926 32.65C190.174 33.214 189.469 33.684 188.811 34.06C186.994 35.0627 185.004 35.564 182.842 35.564C180.68 35.564 178.973 34.7963 177.719 33.261C176.466 31.7257 175.839 29.595 175.839 26.869ZM182.56 25.318C184.158 25.036 185.427 24.3623 186.367 23.297C187.307 22.2317 187.777 20.853 187.777 19.161C187.777 17.469 187.276 16.623 186.273 16.623C185.083 16.623 184.158 17.6413 183.5 19.678C182.874 21.6833 182.56 23.5633 182.56 25.318ZM206.973 2.194C206.973 4.57533 206.174 9.244 204.576 16.2C206.456 14.8527 208.148 14.179 209.652 14.179C211.187 14.179 212.487 14.8213 213.553 16.106C214.649 17.3593 215.198 19.2863 215.198 21.887C215.198 26.2423 214.336 29.6107 212.613 31.992C210.921 34.3733 208.853 35.564 206.409 35.564C205.5 35.564 204.576 35.4543 203.636 35.235C202.727 35.0157 202.038 34.7807 201.568 34.53L200.863 34.201C198.857 34.8903 196.899 35.235 194.988 35.235C194.8 35.0783 194.706 34.3263 194.706 32.979C194.706 31.6003 195.583 27.0883 197.338 19.443C199.092 11.7663 199.97 6.518 199.97 3.698C199.97 3.19667 199.891 2.55433 199.735 1.771C202.179 0.924999 204.513 0.501999 206.738 0.501999C206.894 0.940665 206.973 1.50467 206.973 2.194ZM206.55 18.174C205.954 18.174 205.061 18.456 203.871 19.02C202.429 25.0987 201.646 29.454 201.521 32.086C202.461 32.4933 203.354 32.697 204.2 32.697C205.39 32.697 206.377 31.6003 207.161 29.407C207.975 27.2137 208.383 24.801 208.383 22.169C208.383 19.5057 207.772 18.174 206.55 18.174Z" fill="#B5437B"/>
<path d="M126.552 35.564C125.455 35.564 124.609 35.235 124.014 34.577C123.418 33.919 123.121 33.0417 123.121 31.945C123.121 30.8483 123.528 29.9083 124.343 29.125C125.157 28.3103 126.113 27.903 127.21 27.903C128.338 27.903 129.199 28.232 129.795 28.89C130.39 29.5167 130.688 30.3783 130.688 31.475C130.688 32.5403 130.265 33.496 129.419 34.342C128.604 35.1567 127.648 35.564 126.552 35.564Z" fill="#3C8CB5"/>
</svg>
